<mxfile>
  <diagram>
    <mxGraphModel>
      <root>
        <mxCell id="0"/>
        <mxCell id="1" parent="0"/>
        <!-- Articles Table -->
        <mxCell id="2" value="Articles" style="rounded=1;whiteSpace=wrap;html=1;" vertex="1" parent="1">
          <mxGeometry x="20" y="20" width="240" height="260" as="geometry"/>
        </mxCell>
        <!-- Attributes for Articles -->
        <mxCell id="3" value="- ID: int (PK, AI)" style="text;html=1;spacingLeft=4;" vertex="1" parent="2">
          <mxGeometry y="20" width="240" height="20" as="geometry"/>
        </mxCell>
        <!-- Additional attributes omitted for brevity -->

        <!-- ArticlesViewForUI Table -->
        <mxCell id="20" value="ArticlesViewForUI" style="rounded=1;whiteSpace=wrap;html=1;" vertex="1" parent="1">
          <mxGeometry x="280" y="20" width="240" height="260" as="geometry"/>
        </mxCell>
        <!-- Attributes for ArticlesViewForUI -->
        <mxCell id="21" value="- Id: int (PK, AI)" style="text;html=1;spacingLeft=4;" vertex="1" parent="20">
          <mxGeometry y="20" width="240" height="20" as="geometry"/>
        </mxCell>
        <!-- Additional attributes omitted for brevity -->

        <!-- Relationships and other tables would follow a similar pattern -->
      </root>
    </mxGraphModel>
  </diagram>
</mxfile>
